<svg xmlns="http://www.w3.org/2000/svg" version="1.1" xmlns:xlink="http://www.w3.org/1999/xlink" xmlns:svgjs="http://svgjs.dev/svgjs" width="1000" height="1000" viewBox="0 0 1000 1000"><rect width="1000" height="1000" fill="#000000"></rect><g transform="matrix(0.7,0,0,0.7,149.57575757575756,282.1265587044535)"><svg viewBox="0 0 396 247" data-background-color="#ffffff" preserveAspectRatio="xMidYMid meet" height="623" width="1000" xmlns="http://www.w3.org/2000/svg" xmlns:xlink="http://www.w3.org/1999/xlink"><g id="tight-bounds" transform="matrix(1,0,0,1,0.2400000000000091,-0.09999999999999432)"><svg viewBox="0 0 395.52 247.2" height="247.2" width="395.52"><g><svg></svg></g><g><svg viewBox="0 0 395.52 247.2" height="247.2" width="395.52"><g transform="matrix(1,0,0,1,75.54432,70.61346126418152)"><svg viewBox="0 0 244.43135999999998 105.97307747163694" height="105.97307747163694" width="244.43135999999998"><g><svg viewBox="0 0 244.43135999999998 105.97307747163694" height="105.97307747163694" width="244.43135999999998"><g><svg viewBox="0 0 244.43135999999998 105.97307747163694" height="105.97307747163694" width="244.43135999999998"><g><svg viewBox="0 0 244.43135999999998 105.97307747163694" height="105.97307747163694" width="244.43135999999998"><g id="textblocktransform"><svg viewBox="0 0 244.43135999999998 105.97307747163694" height="105.97307747163694" width="244.43135999999998" id="textblock"><g><svg viewBox="0 0 244.43135999999998 105.97307747163694" height="105.97307747163694" width="244.43135999999998"><g transform="matrix(1,0,0,1,0,0)"><svg width="244.43135999999998" viewBox="3.0799999237060547 -38.650001525878906 90.3699951171875 39.19000244140625" height="105.97307747163694" data-palette-color="#000000"><path d="M3.08-5.08L7.2-11.35Q9.28-10.18 11.41-9.24 13.55-8.3 15.84-7.65 18.14-7.01 20.67-6.67 23.19-6.32 26.05-6.32L26.05-6.32Q29.49-6.32 31.91-6.77 34.33-7.23 35.85-8.02 37.38-8.81 38.07-9.91 38.77-11.01 38.77-12.3L38.77-12.3Q38.77-14.38 37.04-15.59 35.3-16.8 31.69-16.8L31.69-16.8Q30.1-16.8 28.34-16.59 26.59-16.38 24.79-16.14 23-15.89 21.25-15.69 19.51-15.48 17.97-15.48L17.97-15.48Q15.41-15.48 13.05-16.14 10.69-16.8 8.87-18.12 7.06-19.43 5.98-21.41 4.91-23.39 4.91-26.03L4.91-26.03Q4.91-27.59 5.33-29.13 5.76-30.66 6.7-32.07 7.64-33.47 9.13-34.68 10.62-35.89 12.73-36.77 14.84-37.65 17.61-38.15 20.39-38.65 23.93-38.65L23.93-38.65Q26.49-38.65 29.08-38.37 31.67-38.09 34.12-37.57 36.57-37.06 38.84-36.34 41.11-35.62 43.07-34.74L43.07-34.74 39.67-28.49Q38.06-29.2 36.21-29.8 34.35-30.4 32.32-30.83 30.3-31.27 28.14-31.53 25.98-31.79 23.73-31.79L23.73-31.79Q20.53-31.79 18.47-31.32 16.41-30.86 15.19-30.14 13.96-29.42 13.49-28.53 13.01-27.64 13.01-26.76L13.01-26.76Q13.01-25.05 14.55-23.96 16.09-22.88 19.24-22.88L19.24-22.88Q20.51-22.88 22.16-23.06 23.8-23.24 25.62-23.46 27.44-23.68 29.33-23.86 31.23-24.05 33.01-24.05L33.01-24.05Q36.38-24.05 38.98-23.29 41.58-22.53 43.33-21.13 45.09-19.73 46-17.74 46.9-15.75 46.9-13.28L46.9-13.28Q46.9-9.99 45.37-7.41 43.85-4.83 41.03-3.06 38.21-1.29 34.23-0.38 30.25 0.54 25.37 0.54L25.37 0.54Q22.14 0.54 19.07 0.13 15.99-0.27 13.17-1.01 10.35-1.76 7.8-2.8 5.25-3.83 3.08-5.08L3.08-5.08ZM55.42 0L55.42-38.16 75.8-38.16Q79.54-38.16 82.31-37.37 85.08-36.57 86.91-35.18 88.74-33.79 89.63-31.87 90.52-29.96 90.52-27.73L90.52-27.73Q90.52-24.1 88.23-21.36L88.23-21.36Q90.87-19.8 92.16-17.31 93.45-14.82 93.45-11.65L93.45-11.65Q93.45-8.98 92.56-6.84 91.67-4.69 89.85-3.16 88.03-1.64 85.26-0.82 82.49 0 78.73 0L78.73 0 55.42 0ZM63.16-23.51L78.78-23.51Q79.78-23.51 80.73-23.44L80.73-23.44Q82.37-25 82.37-27L82.37-27Q82.37-29.08 80.75-30.21 79.12-31.35 76-31.35L76-31.35 63.16-31.35 63.16-23.51ZM63.16-6.74L78.93-6.74Q82.05-6.74 83.68-8.08 85.3-9.42 85.3-11.87L85.3-11.87Q85.3-14.31 83.68-15.67 82.05-17.04 78.93-17.04L78.93-17.04 63.16-17.04 63.16-6.74Z" opacity="1" transform="matrix(1,0,0,1,0,0)" fill="#ffffff" class="wordmark-text-0" data-fill-palette-color="primary" id="text-0"></path></svg></g></svg></g></svg></g></svg></g></svg></g></svg></g></svg></g><g><path d="M245.816 0c68.262 0 123.6 55.338 123.6 123.6 0 68.262-55.338 123.6-123.6 123.6-44.207 0-82.993-23.208-104.84-58.105h5.683c21.268 32.133 57.737 53.326 99.157 53.327 65.623 0 118.822-53.198 118.821-118.822 0-65.623-53.198-118.822-118.821-118.822-41.419 0-77.889 21.193-99.157 53.327l-5.683 0c21.847-34.897 60.633-58.105 104.84-58.105z" fill="#ffffff" stroke="transparent" data-fill-palette-color="tertiary"></path></g></svg></g><defs></defs></svg><rect width="395.52" height="247.2" fill="none" stroke="none" visibility="hidden"></rect></g></svg></g></svg>